<svg width="0" height="0" class="hidden">
  <symbol xmlns="http://www.w3.org/2000/svg" viewBox="0 0 32 32" id="location-on">
    <path d="M16 2.668A9.324 9.324 0 0 0 6.668 12C6.668 19 16 29.332 16 29.332S25.332 19 25.332 12A9.324 9.324 0 0 0 16 2.668ZM9.332 12A6.672 6.672 0 0 1 16 5.332 6.672 6.672 0 0 1 22.668 12c0 3.84-3.84 9.586-6.668 13.172C13.227 21.613 9.332 15.8 9.332 12Zm0 0"></path>
    <path d="M19.332 12a3.333 3.333 0 1 1-6.665-.001 3.333 3.333 0 0 1 6.665.001Zm0 0"></path>
  </symbol>
  <symbol xmlns="http://www.w3.org/2000/svg" viewBox="0 0 32 32" id="email-open">
    <path d="M28.04 8.387 16 .852 3.96 8.387a2.65 2.65 0 0 0-1.292 2.281V24c0 1.465 1.2 2.668 2.664 2.668h21.336A2.676 2.676 0 0 0 29.332 24V10.668a2.65 2.65 0 0 0-1.293-2.281M26.668 24H5.332V13.332L16 20l10.668-6.668V24M16 17.332 5.332 10.668 16 4l10.668 6.668Zm0 0"></path>
  </symbol>
  <symbol xmlns="http://www.w3.org/2000/svg" viewBox="0 0 32 32" id="call">
    <path d="m25.64 20.348-3.386-.387a2.665 2.665 0 0 0-2.188.758l-2.453 2.453a20.04 20.04 0 0 1-8.785-8.785l2.465-2.465a2.655 2.655 0 0 0 .762-2.188l-.387-3.359a2.671 2.671 0 0 0-2.656-2.363H6.707c-1.508 0-2.762 1.254-2.668 2.761.707 11.387 9.813 20.48 21.188 21.188 1.507.094 2.761-1.16 2.761-2.668v-2.305c.012-1.347-1-2.48-2.347-2.64Zm0 0"></path>
  </symbol>
    <symbol xmlns="http://www.w3.org/2000/svg" viewBox="0 0 32 32" id="telegram-plane">
    <path d="M26.07 3.996a2.974 2.974 0 0 0-.933.223h-.004c-.285.113-1.64.683-3.7 1.547l-7.382 3.109c-5.297 2.23-10.504 4.426-10.504 4.426l.062-.024s-.359.118-.734.375a2.03 2.03 0 0 0-.586.567c-.184.27-.332.683-.277 1.11.09.722.558 1.155.894 1.394.34.242.664.355.664.355h.008l4.883 1.645c.219.703 1.488 4.875 1.793 5.836.18.574.355.933.574 1.207.106.14.23.257.379.351a1.119 1.119 0 0 0 .246.106l-.05-.012c.015.004.027.016.038.02.04.011.067.015.118.023.773.234 1.394-.246 1.394-.246l.035-.028 2.883-2.625 4.832 3.707.11.047c1.007.442 2.027.196 2.566-.238.543-.437.754-.996.754-.996l.035-.09 3.734-19.129c.106-.472.133-.914.016-1.343a1.807 1.807 0 0 0-.781-1.047 1.872 1.872 0 0 0-1.067-.27Zm-.101 2.05c-.004.063.008.056-.02.177v.011l-3.699 18.93c-.016.027-.043.086-.117.145-.078.062-.14.101-.465-.028l-5.91-4.531-3.57 3.254.75-4.79 9.656-9c.398-.37.265-.448.265-.448.028-.454-.601-.133-.601-.133l-12.176 7.543-.004-.02-5.836-1.965v-.004l-.015-.003a.27.27 0 0 0 .03-.012l.032-.016.031-.011s5.211-2.196 10.508-4.426c2.652-1.117 5.324-2.242 7.379-3.11 2.055-.863 3.574-1.496 3.66-1.53.082-.032.043-.032.102-.032Zm0 0"></path>
  </symbol>
  <symbol xmlns="http://www.w3.org/2000/svg" viewBox="0 0 32 32" id="linkedin">
    <path d="M4.828 1.367c-.547.106-.71.153-1 .27-1.176.476-2.07 1.52-2.39 2.789-.098.383-.098 1.433-.004 1.808.257 1.012.882 1.899 1.714 2.43.633.406 1.188.598 1.918.649 1.922.14 3.68-1.157 4.164-3.075.098-.379.098-1.43 0-1.808-.402-1.59-1.683-2.785-3.257-3.04-.336-.054-.93-.066-1.145-.023m.957 2.723c.492.168.883.715.883 1.242 0 .703-.633 1.336-1.336 1.336a1.38 1.38 0 0 1-1.254-.906A1.32 1.32 0 0 1 5.785 4.09m14.348 5.324a9.299 9.299 0 0 0-2 .492c-3.363 1.25-5.668 4.196-6.078 7.774-.035.297-.055 2.41-.055 5.496 0 5.648-.02 5.34.398 5.758.403.402.368.398 3.602.398s3.2.004 3.602-.398c.418-.418.398-.125.402-5.622 0-3.94.016-4.925.07-5.085.156-.43.516-.75.961-.848.445-.102.91.031 1.23.351.422.422.403.13.403 5.602 0 5.473-.02 5.184.398 5.602.403.402.364.398 3.602.398 3.234 0 3.2.004 3.602-.398.418-.418.398-.11.398-5.758-.004-3.086-.023-5.2-.059-5.496a9.38 9.38 0 0 0-3.879-6.625c-.585-.426-1.789-1.028-2.515-1.262a9.388 9.388 0 0 0-4.082-.379M2.19 10.758a1.51 1.51 0 0 0-.457.305c-.433.433-.402-.27-.402 8.937 0 9.203-.031 8.504.398 8.934.403.402.368.398 3.602.398 3.238 0 3.2.004 3.602-.398.43-.43.398.27.398-8.934 0-9.203.031-8.504-.398-8.934-.403-.406-.36-.398-3.621-.394-2.47.004-2.918.015-3.122.086m20.45 1.375c1.355.281 2.406.855 3.39 1.836.961.969 1.516 1.972 1.844 3.363.082.363.094.824.11 4.867l.019 4.469h-2.668l-.016-4.36c-.02-4.703-.004-4.437-.304-5.183-.45-1.121-1.543-2.05-2.778-2.355-.379-.098-1.433-.098-1.808 0-1.242.316-2.309 1.21-2.762 2.316-.32.773-.3.488-.32 5.223l-.02 4.359h-2.664l.016-4.469c.023-4.875.008-4.664.34-5.664.683-2.05 2.484-3.754 4.554-4.297.95-.25 2.18-.293 3.067-.105M6.668 20v6.668H4V13.332h2.668V20"></path>
  </symbol>
  <symbol xmlns="http://www.w3.org/2000/svg" viewBox="0 0 32 32" id="twitter">
    <path d="M21.121 2.719c.418-.031.836-.04 1.254-.028.727.016 1.016.047 1.465.153a7.586 7.586 0 0 1 2.336.976l.281.18h2.691c1.48 0 2.692.008 2.692.012 0 .008-.399 1.203-.887 2.656l-.883 2.64-.015 1.731c-.012 1.723-.04 2.102-.242 3.336-.528 3.16-1.938 6.29-3.985 8.852a23.315 23.315 0 0 1-2.68 2.734 16.757 16.757 0 0 1-9.937 3.844c-3.066.133-5.672-.399-8.16-1.657-1.567-.793-3.02-1.937-3.871-3.046-.227-.293-.23-.309-.133-.38.055-.038.531-.398 1.058-.792l.961-.723.153.195c.312.399 1.199 1.22 1.691 1.57 1.54 1.094 3.453 1.81 5.625 2.098.836.114 2.625.13 3.41.032 2.653-.332 5.133-1.332 7.094-2.864 2.113-1.644 3.938-4.004 4.992-6.453.504-1.164.98-2.758 1.176-3.918.195-1.168.262-2.98.156-4.176l-.047-.523.836-2.5h-2.605l-.469-.356c-.496-.382-1.117-.703-1.637-.847-.441-.121-1.593-.164-2.074-.078-1.293.226-2.16.968-2.75 2.363-.402.945-.582 1.875-.629 3.242l-.031.942-.48.03c-3.512.25-6.942-.878-10.97-3.612l-.019-.012c-.808-.547-.808-.547-.824-.399-.008.082.047.461.121.836.262 1.305.692 2.606 1.145 3.477l.207.394-.168.102c-.094.059-.524.313-.953.57-.434.258-.79.492-.79.524 0 .125.508 1.094.84 1.594.344.515 1.434 1.687 1.875 2.015l.184.137-.66.89-.656.895.128.102c.973.773 2.313 1.359 3.942 1.726.23.05.457.106.684.16.023.016-.465 2.543-.497 2.575-.043.042-.914-.149-1.695-.372-2.738-.773-4.684-2.125-5.726-3.98-.106-.188-.184-.348-.172-.356.011-.011.367-.18.793-.375.421-.195.78-.363.789-.375.011-.011-.164-.23-.387-.488a11.835 11.835 0 0 1-2.184-3.863c-.257-.785-.492-1.852-.421-1.914.023-.02.43-.094.898-.16.293-.035.586-.082.875-.14.012-.013-.078-.349-.203-.755-.485-1.601-.668-2.742-.672-4.12 0-1.595.184-2.087 1.062-2.911.297-.277.563-.5.59-.504.032 0 .34.23.696.516 3.64 2.918 6.675 4.546 9.37 5.03.493.09.669.134.75.063.051-.046.06-.144.087-.312.12-.645.293-1.274.515-1.887.957-2.523 2.684-3.988 5.09-4.316Zm0 0"></path>
  </symbol>
</svg>
