
<svg width="0" height="0" class="hidden">
  <symbol fill="#000000" version="1.1" id="phone-call-svgrepo-com" xmlns="http://www.w3.org/2000/svg" xmlns:xlink="http://www.w3.org/1999/xlink" xml:space="preserve" viewBox="0 0 473.806 473.806">
    <g>
      <g>
        <path d="M374.456,293.506c-9.7-10.1-21.4-15.5-33.8-15.5c-12.3,0-24.1,5.3-34.2,15.4l-31.6,31.5c-2.6-1.4-5.2-2.7-7.7-4
			c-3.6-1.8-7-3.5-9.9-5.3c-29.6-18.8-56.5-43.3-82.3-75c-12.5-15.8-20.9-29.1-27-42.6c8.2-7.5,15.8-15.3,23.2-22.8
			c2.8-2.8,5.6-5.7,8.4-8.5c21-21,21-48.2,0-69.2l-27.3-27.3c-3.1-3.1-6.3-6.3-9.3-9.5c-6-6.2-12.3-12.6-18.8-18.6
			c-9.7-9.6-21.3-14.7-33.5-14.7s-24,5.1-34,14.7c-0.1,0.1-0.1,0.1-0.2,0.2l-34,34.3c-12.8,12.8-20.1,28.4-21.7,46.5
			c-2.4,29.2,6.2,56.4,12.8,74.2c16.2,43.7,40.4,84.2,76.5,127.6c43.8,52.3,96.5,93.6,156.7,122.7c23,10.9,53.7,23.8,88,26
			c2.1,0.1,4.3,0.2,6.3,0.2c23.1,0,42.5-8.3,57.7-24.8c0.1-0.2,0.3-0.3,0.4-0.5c5.2-6.3,11.2-12,17.5-18.1c4.3-4.1,8.7-8.4,13-12.9
			c9.9-10.3,15.1-22.3,15.1-34.6c0-12.4-5.3-24.3-15.4-34.3L374.456,293.506z M410.256,398.806
			C410.156,398.806,410.156,398.906,410.256,398.806c-3.9,4.2-7.9,8-12.2,12.2c-6.5,6.2-13.1,12.7-19.3,20
			c-10.1,10.8-22,15.9-37.6,15.9c-1.5,0-3.1,0-4.6-0.1c-29.7-1.9-57.3-13.5-78-23.4c-56.6-27.4-106.3-66.3-147.6-115.6
			c-34.1-41.1-56.9-79.1-72-119.9c-9.3-24.9-12.7-44.3-11.2-62.6c1-11.7,5.5-21.4,13.8-29.7l34.1-34.1c4.9-4.6,10.1-7.1,15.2-7.1
			c6.3,0,11.4,3.8,14.6,7c0.1,0.1,0.2,0.2,0.3,0.3c6.1,5.7,11.9,11.6,18,17.9c3.1,3.2,6.3,6.4,9.5,9.7l27.3,27.3
			c10.6,10.6,10.6,20.4,0,31c-2.9,2.9-5.7,5.8-8.6,8.6c-8.4,8.6-16.4,16.6-25.1,24.4c-0.2,0.2-0.4,0.3-0.5,0.5
			c-8.6,8.6-7,17-5.2,22.7c0.1,0.3,0.2,0.6,0.3,0.9c7.1,17.2,17.1,33.4,32.3,52.7l0.1,0.1c27.6,34,56.7,60.5,88.8,80.8
			c4.1,2.6,8.3,4.7,12.3,6.7c3.6,1.8,7,3.5,9.9,5.3c0.4,0.2,0.8,0.5,1.2,0.7c3.4,1.7,6.6,2.5,9.9,2.5c8.3,0,13.5-5.2,15.2-6.9
			l34.2-34.2c3.4-3.4,8.8-7.5,15.1-7.5c6.2,0,11.3,3.9,14.4,7.3c0.1,0.1,0.1,0.1,0.2,0.2l55.1,55.1
			C420.456,377.706,420.456,388.206,410.256,398.806z"></path>
        <path d="M256.056,112.706c26.2,4.4,50,16.8,69,35.8s31.3,42.8,35.8,69c1.1,6.6,6.8,11.2,13.3,11.2c0.8,0,1.5-0.1,2.3-0.2
			c7.4-1.2,12.3-8.2,11.1-15.6c-5.4-31.7-20.4-60.6-43.3-83.5s-51.8-37.9-83.5-43.3c-7.4-1.2-14.3,3.7-15.6,11
			S248.656,111.506,256.056,112.706z"></path>
        <path d="M473.256,209.006c-8.9-52.2-33.5-99.7-71.3-137.5s-85.3-62.4-137.5-71.3c-7.3-1.3-14.2,3.7-15.5,11
			c-1.2,7.4,3.7,14.3,11.1,15.6c46.6,7.9,89.1,30,122.9,63.7c33.8,33.8,55.8,76.3,63.7,122.9c1.1,6.6,6.8,11.2,13.3,11.2
			c0.8,0,1.5-0.1,2.3-0.2C469.556,223.306,474.556,216.306,473.256,209.006z"></path>
      </g>
    </g>
  </symbol>
  <symbol id="twitter" xmlns="http://www.w3.org/2000/svg" viewBox="0 0 48 48">
    <defs></defs>
    <path d="M38.74,16.55v1c0,10.07-7.64,21.61-21.62,21.61A21.14,21.14,0,0,1,5.5,35.71a12.22,12.22,0,0,0,1.81.11,15.25,15.25,0,0,0,9.44-3.24,7.56,7.56,0,0,1-7.1-5.29,6.9,6.9,0,0,0,1.44.15,7.53,7.53,0,0,0,2-.27A7.57,7.57,0,0,1,7,19.72v-.1a7.42,7.42,0,0,0,3.44.94A7.54,7.54,0,0,1,8.05,10.5a21.58,21.58,0,0,0,15.68,7.94,6.38,6.38,0,0,1-.21-1.74,7.55,7.55,0,0,1,13.17-5.31,15.59,15.59,0,0,0,4.83-1.85,7.65,7.65,0,0,1-3.39,4.27,15.87,15.87,0,0,0,4.37-1.26,15.56,15.56,0,0,1-3.76,4Z"></path>
  </symbol>
  <symbol id="telegram" xmlns="http://www.w3.org/2000/svg" viewBox="0 0 48 48">
    <defs></defs>
    <path d="M40.83,8.48c1.14,0,2,1,1.54,2.86l-5.58,26.3c-.39,1.87-1.52,2.32-3.08,1.45L20.4,29.26a.4.4,0,0,1,0-.65L35.77,14.73c.7-.62-.15-.92-1.07-.36L15.41,26.54a.46.46,0,0,1-.4.05L6.82,24C5,23.47,5,22.22,7.23,21.33L40,8.69a2.16,2.16,0,0,1,.83-.21Z"></path>
  </symbol>
  <symbol fill="none" xmlns="http://www.w3.org/2000/svg" viewBox="0 -0.5 25 25" id="linkedin">
    <path d="M8.75 11C8.75 10.5858 8.41421 10.25 8 10.25C7.58579 10.25 7.25 10.5858 7.25 11H8.75ZM7.25 17C7.25 17.4142 7.58579 17.75 8 17.75C8.41421 17.75 8.75 17.4142 8.75 17H7.25ZM17.25 17C17.25 17.4142 17.5858 17.75 18 17.75C18.4142 17.75 18.75 17.4142 18.75 17H17.25ZM12 14H11.25H12ZM11.25 17C11.25 17.4142 11.5858 17.75 12 17.75C12.4142 17.75 12.75 17.4142 12.75 17H11.25ZM8.75 8C8.75 7.58579 8.41421 7.25 8 7.25C7.58579 7.25 7.25 7.58579 7.25 8H8.75ZM7.25 9C7.25 9.41421 7.58579 9.75 8 9.75C8.41421 9.75 8.75 9.41421 8.75 9H7.25ZM7.25 11V17H8.75V11H7.25ZM18.75 17V14H17.25V17H18.75ZM18.75 14C18.75 11.9289 17.0711 10.25 15 10.25V11.75C16.2426 11.75 17.25 12.7574 17.25 14H18.75ZM15 10.25C12.9289 10.25 11.25 11.9289 11.25 14H12.75C12.75 12.7574 13.7574 11.75 15 11.75V10.25ZM11.25 14V17H12.75V14H11.25ZM7.25 8V9H8.75V8H7.25Z" fill="#000000"></path>
  </symbol>
</svg>
