
<svg width="0" height="0" class="hidden">
  
  <svg width="0" height="0" class="hidden">
    <symbol xmlns="http://www.w3.org/2000/svg" id="email" viewBox="0 0 64 64">
      <path fill="#222" d="M53.42 53.32H10.58a8.51 8.51 0 0 1-8.5-8.5V19.18a8.51 8.51 0 0 1 8.5-8.5h42.84a8.51 8.51 0 0 1 8.5 8.5v25.64a8.51 8.51 0 0 1-8.5 8.5ZM10.58 13.68a5.5 5.5 0 0 0-5.5 5.5v25.64a5.5 5.5 0 0 0 5.5 5.5h42.84a5.5 5.5 0 0 0 5.5-5.5V19.18a5.5 5.5 0 0 0-5.5-5.5Z"></path>
      <path fill="#222" d="M32 38.08a8.51 8.51 0 0 1-5.13-1.71L3.52 18.71a1.5 1.5 0 1 1 1.81-2.39L28.68 34a5.55 5.55 0 0 0 6.64 0l23.35-17.68a1.5 1.5 0 1 1 1.81 2.39L37.13 36.37A8.51 8.51 0 0 1 32 38.08Z"></path>
      <path fill="#222" d="M4.17 49.14a1.5 1.5 0 0 1-1-2.62l18.4-16.41a1.5 1.5 0 0 1 2 2.24L5.17 48.76a1.46 1.46 0 0 1-1 .38zm55.66 0a1.46 1.46 0 0 1-1-.38l-18.4-16.41a1.5 1.5 0 1 1 2-2.24l18.39 16.41a1.5 1.5 0 0 1-1 2.62z"></path>
    </symbol>
    <symbol xmlns="http://www.w3.org/2000/svg" id="phone" viewBox="0 0 32 32">
      <path d="M27.308,20.649l-2.2-2.2a3.521,3.521,0,0,0-4.938-.021,2.152,2.152,0,0,1-2.729.267A15.026,15.026,0,0,1,13.3,14.562a2.181,2.181,0,0,1,.284-2.739A3.521,3.521,0,0,0,13.553,6.9l-2.2-2.2a3.514,3.514,0,0,0-4.961,0l-.633.634c-3.3,3.3-3.053,10.238,3.813,17.1,4.14,4.141,8.307,5.875,11.686,5.875a7.5,7.5,0,0,0,5.418-2.061l.634-.634A3.513,3.513,0,0,0,27.308,20.649ZM25.894,24.2l-.634.634c-2.6,2.6-8.339,2.125-14.276-3.813S4.571,9.34,7.171,6.74L7.8,6.107a1.511,1.511,0,0,1,2.133,0l2.2,2.2a1.511,1.511,0,0,1,.021,2.11,4.181,4.181,0,0,0-.531,5.239,17.01,17.01,0,0,0,4.713,4.706,4.179,4.179,0,0,0,5.231-.517,1.512,1.512,0,0,1,2.118.013l2.2,2.2A1.51,1.51,0,0,1,25.894,24.2Z"></path>
    </symbol>
    <symbol xmlns="http://www.w3.org/2000/svg" id="location" viewBox="0 0 24 24">
      <g fill="none" fill-rule="evenodd" stroke="#200E32" stroke-linecap="round" stroke-linejoin="round" stroke-width="1.5" transform="translate(3.5 2)">
        <path d="M0.739130438,8.39130439 C0.753537867,4.15071799 4.2028919,0.72472301 8.4434783,0.739085164 C12.6840647,0.753537867 16.1100597,4.2028919 16.0956975,8.4434783 L16.0956975,8.53043483 C16.0434783,11.2869566 14.5043479,13.8347827 12.6173914,15.826087 C11.5382412,16.9467164 10.3331375,17.9388114 9.026087,18.7826088 C8.67659293,19.0849173 8.15818976,19.0849173 7.80869569,18.7826088 C5.86019813,17.5143538 4.15006533,15.9131279 2.75652175,14.052174 C1.51448066,12.4293903 0.809295599,10.4597355 0.739130438,8.41739135 L0.739130438,8.39130439 Z"></path>
        <circle cx="8.417" cy="8.539" r="2.461"></circle>
      </g>
    </symbol>
  </svg>

  <symbol id="twitter" xmlns="http://www.w3.org/2000/svg" viewBox="0 0 48 48">
    <defs></defs>
    <path d="M38.74,16.55v1c0,10.07-7.64,21.61-21.62,21.61A21.14,21.14,0,0,1,5.5,35.71a12.22,12.22,0,0,0,1.81.11,15.25,15.25,0,0,0,9.44-3.24,7.56,7.56,0,0,1-7.1-5.29,6.9,6.9,0,0,0,1.44.15,7.53,7.53,0,0,0,2-.27A7.57,7.57,0,0,1,7,19.72v-.1a7.42,7.42,0,0,0,3.44.94A7.54,7.54,0,0,1,8.05,10.5a21.58,21.58,0,0,0,15.68,7.94,6.38,6.38,0,0,1-.21-1.74,7.55,7.55,0,0,1,13.17-5.31,15.59,15.59,0,0,0,4.83-1.85,7.65,7.65,0,0,1-3.39,4.27,15.87,15.87,0,0,0,4.37-1.26,15.56,15.56,0,0,1-3.76,4Z"></path>
  </symbol>
  <symbol id="telegram" xmlns="http://www.w3.org/2000/svg" viewBox="0 0 48 48">
    <defs></defs>
    <path d="M40.83,8.48c1.14,0,2,1,1.54,2.86l-5.58,26.3c-.39,1.87-1.52,2.32-3.08,1.45L20.4,29.26a.4.4,0,0,1,0-.65L35.77,14.73c.7-.62-.15-.92-1.07-.36L15.41,26.54a.46.46,0,0,1-.4.05L6.82,24C5,23.47,5,22.22,7.23,21.33L40,8.69a2.16,2.16,0,0,1,.83-.21Z"></path>
  </symbol>
  <symbol fill="none" xmlns="http://www.w3.org/2000/svg" viewBox="0 -0.5 25 25" id="linkedin">
    <path d="M8.75 11C8.75 10.5858 8.41421 10.25 8 10.25C7.58579 10.25 7.25 10.5858 7.25 11H8.75ZM7.25 17C7.25 17.4142 7.58579 17.75 8 17.75C8.41421 17.75 8.75 17.4142 8.75 17H7.25ZM17.25 17C17.25 17.4142 17.5858 17.75 18 17.75C18.4142 17.75 18.75 17.4142 18.75 17H17.25ZM12 14H11.25H12ZM11.25 17C11.25 17.4142 11.5858 17.75 12 17.75C12.4142 17.75 12.75 17.4142 12.75 17H11.25ZM8.75 8C8.75 7.58579 8.41421 7.25 8 7.25C7.58579 7.25 7.25 7.58579 7.25 8H8.75ZM7.25 9C7.25 9.41421 7.58579 9.75 8 9.75C8.41421 9.75 8.75 9.41421 8.75 9H7.25ZM7.25 11V17H8.75V11H7.25ZM18.75 17V14H17.25V17H18.75ZM18.75 14C18.75 11.9289 17.0711 10.25 15 10.25V11.75C16.2426 11.75 17.25 12.7574 17.25 14H18.75ZM15 10.25C12.9289 10.25 11.25 11.9289 11.25 14H12.75C12.75 12.7574 13.7574 11.75 15 11.75V10.25ZM11.25 14V17H12.75V14H11.25ZM7.25 8V9H8.75V8H7.25Z" fill="#000000"></path>
  </symbol>
</svg>
